<svg width="21" height="21" viewBox="0 0 39 36" fill="none" xmlns="http://www.w3.org/2000/svg">
  <g clip-path="url(#clip0_1267_2793)">
    <path d="M19.5 7.875C18.6563 7.875 17.8316 7.64407 17.1301 7.21141C16.4287 6.77876 15.8819 6.1638 15.5591 5.44432C15.2362 4.72483 15.1517 3.93313 15.3163 3.16933C15.4809 2.40553 15.8872 1.70394 16.4838 1.15327C17.0803 0.6026 17.8404 0.227589 18.6678 0.0756597C19.4953 -0.0762696 20.3529 0.00170609 21.1324 0.299726C21.9118 0.597746 22.578 1.10243 23.0467 1.74994C23.5155 2.39746 23.7656 3.15874 23.7656 3.9375C23.7644 4.98145 23.3146 5.98232 22.5149 6.7205C21.7152 7.45868 20.6309 7.87388 19.5 7.875Z" fill="#0097B2"/>
    <path d="M32.9055 7.93115L32.8712 7.93959L32.8392 7.94873C32.763 7.96842 32.6869 7.98951 32.6107 8.01131C31.1931 8.39521 24.3133 10.1854 19.4665 10.1854C14.9624 10.1854 8.70492 8.63849 6.70313 8.11326C6.5039 8.04215 6.30044 7.98159 6.09375 7.93185C4.64648 7.58029 3.65625 8.93732 3.65625 10.1776C3.65625 11.406 4.85215 11.991 6.05947 12.4108V12.4304L13.3126 14.5215C14.0537 14.7838 14.2518 15.0517 14.3485 15.2837C14.6631 16.0283 14.4117 17.5028 14.3226 18.0175L13.8808 21.1815L11.4288 33.5699C11.4212 33.6037 11.4144 33.6381 11.4083 33.6733L11.3907 33.7626C11.214 34.8981 12.1174 35.9999 13.8282 35.9999C15.3212 35.9999 15.9801 35.0486 16.2657 33.7541C16.5514 32.4597 18.3986 22.675 19.465 22.675C20.5314 22.675 22.7282 33.7541 22.7282 33.7541C23.0138 35.0486 23.6727 35.9999 25.1657 35.9999C26.8811 35.9999 27.7845 34.8932 27.6032 33.7541C27.5872 33.6571 27.5681 33.5615 27.5453 33.4687L25.0598 21.1829L24.6187 18.0189C24.2996 16.176 24.5563 15.5671 24.6431 15.4244C24.6455 15.421 24.6475 15.4175 24.6492 15.4138C24.7315 15.2732 25.1062 14.9582 25.9807 14.6551L32.7813 12.4607C32.8231 12.4504 32.8643 12.4382 32.9047 12.4241C34.1235 12.0022 35.3422 11.4187 35.3422 10.179C35.3422 8.93943 34.3528 7.58029 32.9055 7.93115Z" fill="#0097B2"/>
  </g>
  <defs>
    <clipPath id="clip0_1267_2793">
      <rect width="39" height="36" fill="white"/>
    </clipPath>
  </defs>
</svg>
