<svg width="23" height="21" viewBox="0 0 26 24" fill="none" xmlns="http://www.w3.org/2000/svg">
  <g clip-path="url(#clip0_1267_2806)">
    <path d="M17.875 0C16.2175 0 14.7875 1.05 13.91 2.64C15.3725 4.26 16.25 6.48 16.25 9.03C16.25 9.9 16.1525 10.68 15.9575 11.46C16.575 11.79 17.1925 12.03 17.875 12.03C20.5725 12.03 22.75 9.33 22.75 6.03C22.75 2.73 20.5725 0.03 17.875 0.03V0ZM8.125 3C5.4275 3 3.25 5.7 3.25 9C3.25 12.3 5.4275 15 8.125 15C10.8225 15 13 12.3 13 9C13 5.7 10.8225 3 8.125 3ZM23.5625 12.48C22.165 14.01 20.2475 14.94 18.07 15C18.9475 16.14 19.5 17.52 19.5 19.02V21H26V16.02C26 14.46 24.9925 13.11 23.5625 12.45V12.48ZM2.4375 15.48C1.0075 16.14 0 17.49 0 19.05V24.03H16.25V19.05C16.25 17.49 15.2425 16.14 13.8125 15.48C12.35 17.07 10.3675 18 8.125 18C5.8825 18 3.9 17.04 2.4375 15.48Z" fill="#0097B2"/>
  </g>
  <defs>
    <clipPath id="clip0_1267_2806">
      <rect width="26" height="24" fill="white"/>
    </clipPath>
  </defs>
</svg>

