<svg width="23" height="21" viewBox="0 0 30 26" fill="none" xmlns="http://www.w3.org/2000/svg">
  <g clip-path="url(#clip0_1267_2816)">
    <path fill-rule="evenodd" clip-rule="evenodd" d="M3.59458 6.13888H0V3.25H3.59458C4.29755 1.36409 6.33997 0 8.75 0C11.16 0 13.2025 1.36409 13.9054 3.25H30V6.13888H13.9054C13.2025 8.02481 11.16 9.38888 8.75 9.38888C6.33997 9.38888 4.29755 8.02481 3.59458 6.13888ZM6.66667 4.69445C6.66667 3.69727 7.59941 2.88888 8.75 2.88888C9.90059 2.88888 10.8333 3.69727 10.8333 4.69445C10.8333 5.69163 9.90059 6.5 8.75 6.5C7.59941 6.5 6.66667 5.69163 6.66667 4.69445ZM0 11.5556H15.2612C15.9642 9.66964 18.0066 8.30555 20.4167 8.30555C22.8267 8.30555 24.8691 9.66964 25.572 11.5556H30V14.4445H25.572C24.8691 16.3303 22.8267 17.6945 20.4167 17.6945C18.0066 17.6945 15.9642 16.3303 15.2612 14.4445H0L0 11.5556ZM20.4167 11.1944C19.2661 11.1944 18.3333 12.0028 18.3333 13C18.3333 13.9972 19.2661 14.8055 20.4167 14.8055C21.5672 14.8055 22.5 13.9972 22.5 13C22.5 12.0028 21.5672 11.1944 20.4167 11.1944ZM13.9054 22.75C13.2025 24.6359 11.16 26 8.75 26C6.33997 26 4.29755 24.6359 3.59458 22.75H0V19.8612H3.59458C4.29755 17.9752 6.33997 16.6112 8.75 16.6112C11.16 16.6112 13.2025 17.9752 13.9054 19.8612H30V22.75H13.9054ZM6.66667 21.3055C6.66667 20.3084 7.59941 19.5 8.75 19.5C9.90059 19.5 10.8333 20.3084 10.8333 21.3055C10.8333 22.3027 9.90059 23.1112 8.75 23.1112C7.59941 23.1112 6.66667 22.3027 6.66667 21.3055Z" fill="#0097B2"/>
  </g>
  <defs>
    <clipPath id="clip0_1267_2816">
      <rect width="30" height="26" fill="white"/>
    </clipPath>
  </defs>
</svg>