<svg width="29" height="33" viewBox="0 0 29 33" fill="none" xmlns="http://www.w3.org/2000/svg">
<path d="M2.41512 9.10552V23.7119C2.41512 25.2421 3.27823 26.7724 4.63447 27.3287L10.7995 29.9718C11.1694 30.1109 11.5392 30.25 12.0325 30.25C12.649 30.25 13.3887 29.9718 14.0052 29.5545C14.2518 29.2762 14.6217 28.9981 14.7451 28.7198H19.4304C21.2799 28.7198 22.8828 27.0505 22.8828 24.8248V23.4337C22.8828 22.8773 22.5129 22.3208 21.8964 22.3208C21.2799 22.3208 20.91 22.7381 20.91 23.4337V24.8248C20.91 25.7986 20.1702 26.4941 19.4304 26.4941H15.3616V6.46246H19.4304C20.2935 6.46246 20.91 7.15801 20.91 8.13177V9.52284C20.91 10.0793 21.2799 10.6357 21.8964 10.6357C22.5129 10.6357 22.8828 10.0793 22.8828 9.52284V8.13177C22.8828 6.04514 21.4032 4.23672 19.4304 4.23672H14.7451C14.4985 3.95851 14.2518 3.68029 14.0052 3.40207C13.0188 2.70653 11.9091 2.56742 10.7995 2.98475L4.63447 5.62781C3.40148 6.04514 2.41512 7.57533 2.41512 9.10552Z" fill="#0097B2"/>
<path d="M23.1297 20.3727C23.3763 20.3727 23.6228 20.2337 23.7461 20.0946L26.2121 17.3124C26.3354 17.1733 26.3354 17.0342 26.4587 17.0342C26.4587 16.8951 26.582 16.7559 26.582 16.6169C26.582 16.4778 26.582 16.3386 26.4587 16.1996C26.4587 16.0605 26.3354 15.9213 26.2121 15.9213L23.7461 13.1392C23.3763 12.7218 22.7597 12.7218 22.3899 13.1392C22.02 13.5565 22.02 14.2521 22.3899 14.6694L23.253 15.6432H18.1977C17.7045 15.6432 17.2113 16.0605 17.2113 16.7559C17.2113 17.4516 17.7045 17.5907 18.1977 17.5907H23.3763L22.5131 18.5643C22.1433 18.9817 22.1433 19.6773 22.5131 20.0946C22.6364 20.2337 22.8831 20.3727 23.1297 20.3727Z" fill="#0097B2"/>
</svg>
